<svg xmlns="http://www.w3.org/2000/svg" viewBox="0 0 115.58 100"><title>&#x8D44;&#x6E90; 304</title><rect x="30.92" y="-1.61" width="18.07" height="42.07" rx="9.04" transform="rotate(-30 39.955 19.426)" fill="#9ac045"/><rect x="12" y="29.12" width="18.07" height="42.07" rx="9.04" transform="rotate(-90 21.035 50.155)" fill="#edb84c"/><rect x="66.56" y="-1.61" width="18.07" height="42.07" rx="9.04" transform="rotate(-150 75.593 19.417)" fill="#449fe4"/><rect x="85.52" y="29.12" width="18.07" height="42.07" rx="9.04" transform="rotate(-90 94.55 50.16)" fill="#868abe"/><path d="M89.16 86.37L66 46.27a9.22 9.22 0 0 0-15.86.07L27 86.45a9 9 0 0 0 3.3 12.34 9 9 0 0 0 12.35-3.31l15.44-26.77 15.42 26.7a9 9 0 0 0 12.34 3.31 9 9 0 0 0 3.31-12.35z" fill="#333"/></svg>